<?xml version="1.0" encoding="UTF-8"?>
<svg xmlns="http://www.w3.org/2000/svg" viewBox="0 0 320 240" width="320" height="240">
  <style>
    .bg{fill:#090A0E}.surface{fill:#14151B}.header{fill:#101116}.nav{fill:#101116}.panel{fill:#202128}
    .t1{fill:#F0EDE5}.t2{fill:#B1ACA3}.tm{fill:#716E69}
    .acc{fill:#F45126}.accb{fill:#FF6030}.accd{fill:#B83A1C}
    text{font-family:Arial,Helvetica,sans-serif}
  </style>

  <rect width="320" height="240" class="bg"/>

  <rect x="4" y="4" width="312" height="28" rx="3" class="header"/>
  <rect x="10" y="7" width="34" height="24" rx="3" class="surface" stroke="#292A30" stroke-width="1"/>
  <text x="27" y="23" class="t2" font-size="11" text-anchor="middle">&lt;</text>
  <text x="160" y="23" class="t1" font-size="12" font-weight="bold" text-anchor="middle">REVERB</text>
  <rect x="264" y="7" width="48" height="24" rx="3" class="accd"/>
  <text x="288" y="23" class="t1" font-size="10" text-anchor="middle">ON</text>

  <text x="10" y="46" class="tm" font-size="8">REVERB</text>

  <rect x="4" y="48" width="312" height="42" rx="3" class="surface"/>
  <text x="14" y="62" class="tm" font-size="9">MIX</text>
  <text x="306" y="62" class="t1" font-size="11" text-anchor="end">18%</text>
  <rect x="14" y="69" width="292" height="8" rx="3" class="panel"/>
  <rect x="14" y="69" width="53" height="8" rx="3" class="acc"/>
  <circle cx="67" cy="73" r="6" class="accb"/>

  <rect x="4" y="94" width="312" height="42" rx="3" class="surface"/>
  <text x="14" y="108" class="tm" font-size="9">DECAY</text>
  <text x="306" y="108" class="t1" font-size="11" text-anchor="end">2.0 s</text>
  <rect x="14" y="115" width="292" height="8" rx="3" class="panel"/>
  <rect x="14" y="115" width="46" height="8" rx="3" class="acc"/>
  <circle cx="60" cy="119" r="6" class="accb"/>

  <rect x="4" y="140" width="312" height="42" rx="3" class="surface"/>
  <text x="14" y="154" class="tm" font-size="9">DAMPING</text>
  <text x="306" y="154" class="t1" font-size="11" text-anchor="end">45%</text>
  <rect x="14" y="161" width="292" height="8" rx="3" class="panel"/>
  <rect x="14" y="161" width="131" height="8" rx="3" class="acc"/>
  <circle cx="145" cy="165" r="6" class="accb"/>

  <rect y="204" width="320" height="36" class="nav"/>
  <rect x="80" y="204" width="80" height="2" class="acc"/>
  <text x="40" y="228" class="tm" font-size="11" text-anchor="middle">PERF</text>
  <text x="120" y="228" class="t1" font-size="11" font-weight="bold" text-anchor="middle">FX</text>
  <text x="200" y="228" class="tm" font-size="11" text-anchor="middle">PRESET</text>
  <text x="280" y="228" class="tm" font-size="11" text-anchor="middle">SET</text>
</svg>
